<?xml version="1.0" encoding="utf-8"?>
<!-- Generator: Adobe Illustrator 24.3.0, SVG Export Plug-In . SVG Version: 6.00 Build 0)  -->
<svg version="1.1" id="airport" xmlns="http://www.w3.org/2000/svg" xmlns:xlink="http://www.w3.org/1999/xlink" x="0px" y="0px"
	 viewBox="0 0 512 512" style="enable-background:new 0 0 512 512;" xml:space="preserve">
<style type="text/css">
	.st0{fill:#F09817;}
</style>
<path class="st0" d="M349.3,397.9L349.3,397.9c0-0.1-0.1-0.2-0.1-0.2l0-0.1c0-0.1,0-0.1-0.1-0.2l0-0.1c0-0.1-0.1-0.1-0.1-0.2
	l-20.2-40.4l-5.1-10.2l-20.2-62.3c0-0.1-0.1-0.2-0.1-0.4c-4.4-11.6-15.5-19.3-28-19.4H145.1v17.1h130.3c5.3,0,10,3.2,11.9,8.1
	l16.7,51.6H71.5l16.7-51.6c1.9-4.9,6.7-8.1,11.9-8.1H128v-17.1h-27.9c-12.4,0-23.6,7.7-28,19.4c0,0.1-0.1,0.2-0.1,0.4l-20.2,62.3
	l-5.1,10.2l-20.2,40.4c0,0.1-0.1,0.1-0.1,0.2l0,0.1c0,0.1,0,0.1-0.1,0.2l0,0.1c0,0.1,0,0.1-0.1,0.2l0,0c-0.4,1-0.6,2.1-0.6,3.2v57.5
	c0,6.4,3.2,12.4,8.5,16v18.2c0,10.6,8.6,19.2,19.2,19.2h38.4c10.6,0,19.2-8.6,19.2-19.2v-14.9h153.6v14.9c0,10.6,8.6,19.2,19.2,19.2
	h38.4c10.6,0,19.2-8.6,19.2-19.2v-18.2c5.3-3.6,8.5-9.5,8.5-16v-57.5C349.9,400.1,349.7,399,349.3,397.9z M332.8,458.7
	c0,1.2-1,2.1-2.1,2.1h-52.3l10.8-21.7c0.6-1.1,0.9-2.3,1-3.5v0c0-0.1,0-0.2,0-0.2c0,0,0-0.1,0-0.1c0,0,0-0.1,0-0.1v-8.5h17.1
	c1.3,0,2.6-0.3,3.8-0.9l21.8-10.9V458.7z M42.7,458.7v-43.8l21.8,10.9c1.2,0.6,2.5,0.9,3.8,0.9h17.1v8.5c0,0,0,0.1,0,0.1
	c0,0,0,0.1,0,0.1c0,0.1,0,0.2,0,0.2l0,0c0.1,1.2,0.4,2.4,1,3.5l10.8,21.7H44.8C43.6,460.8,42.7,459.8,42.7,458.7z M102.4,421.7
	l12.1-12.1h30.6c0,6,1.6,11.9,4.6,17.1h-47.2V421.7z M162.1,409.6c0-9.4,7.6-17.1,17.1-17.1h17.1c9.4,0,17.1,7.6,17.1,17.1
	s-7.6,17.1-17.1,17.1h-17.1C169.8,426.7,162.1,419,162.1,409.6z M230.4,409.6H261l12.1,12.1v5h-47.2
	C228.8,421.5,230.4,415.6,230.4,409.6z M329.9,397.3l-24.7,12.3h-20l-7.4-7.4l40.3-28.8L329.9,397.3z M309.6,358.4l-47.8,34.1h-36
	c-6.1-10.6-17.4-17.1-29.6-17.1h-17.1c-12.2,0-23.5,6.5-29.6,17.1h-36l-47.8-34.1H309.6z M57.5,373.4l40.3,28.8l-7.4,7.4h-20
	l-24.7-12.3L57.5,373.4z M93.9,492.8c0,1.2-1,2.1-2.1,2.1H53.3c-1.2,0-2.1-1-2.1-2.1v-14.9h42.7V492.8z M116.2,460.8l-8.5-17.1
	h160.1l-8.5,17.1H116.2z M324.3,492.8c0,1.2-1,2.1-2.1,2.1h-38.4c-1.2,0-2.1-1-2.1-2.1v-14.9h42.7V492.8z M467.2,358.4h-6.4v-34.1
	h17.1v-17.1H375.5v17.1h17.1v34.1h-6.4c-10.6,0-19.2,8.6-19.2,19.2v115.2c0,10.6,8.6,19.2,19.2,19.2h81.1c10.6,0,19.2-8.6,19.2-19.2
	V377.6C486.4,367,477.8,358.4,467.2,358.4z M409.6,324.3h34.1v34.1h-34.1V324.3z M386.1,375.5h81.1c1.2,0,2.1,1,2.1,2.1v45.8
	L384,394.9v-17.3C384,376.4,385,375.5,386.1,375.5z M469.3,457.5L384,429v-16.1l85.3,28.4V457.5z M467.2,494.9h-81.1
	c-1.2,0-2.1-1-2.1-2.1V447l85.3,28.4v17.3C469.3,494,468.4,494.9,467.2,494.9z M153.9,190.1c1,3.7,4.4,6.2,8.2,6.2h162.2
	c1.2,0,2.4-0.2,3.4-0.7l37.9-16.7c0.4-0.2,0.9-0.4,1.3-0.7c8.8-5.9,11.2-17.8,5.3-26.6c-1.4-2.1-3.2-3.9-5.3-5.3
	c-0.5-0.3-1-0.6-1.5-0.8l-31.8-12.8c-4.7-3-10.2-4.5-15.8-4.5h-17.5L235,86.7c-1.4-0.9-2.9-1.3-4.6-1.3h-25.6
	c-4.7,0-8.5,3.8-8.5,8.5c0,1.3,0.3,2.6,0.9,3.8l20.8,41.7l-19.9,5l-30.9-23.2c-1.5-1.1-3.3-1.7-5.1-1.7h-17.1
	c-4.7,0-8.5,3.8-8.5,8.5c0,0.8,0.1,1.6,0.3,2.3L153.9,190.1z M159.3,136.5l31.9,23.9c2.1,1.5,4.7,2.1,7.2,1.5l34.1-8.5
	c4.6-1.1,7.4-5.8,6.2-10.3c-0.2-0.6-0.4-1.2-0.6-1.7l-19.4-38.8h9.3l65.4,41.3c1.4,0.9,2.9,1.3,4.6,1.3h19.9c2.5,0,5,0.7,7.1,2.1
	c0.5,0.3,1,0.6,1.5,0.8l31.4,12.7c0.7,0.8,0.7,2.1-0.1,2.9l-35.3,15.6H168.6l-12.2-42.7H159.3z"/>
<path class="st0" d="M121.6,238.9h268.8c10.6,0,19.2-8.6,19.2-19.2V128h-17.1v91.7c0,1.2-1,2.1-2.1,2.1H121.6c-1.2,0-2.1-1-2.1-2.1
	V61.9c0-1.2,1-2.1,2.1-2.1h268.8c1.2,0,2.1,1,2.1,2.1v49.1h17.1V61.9c0-10.6-8.6-19.2-19.2-19.2h-14.9V0h-17.1v42.7H153.6V0h-17.1
	v42.7h-14.9c-10.6,0-19.2,8.6-19.2,19.2v157.9C102.4,230.3,111,238.9,121.6,238.9z"/>
<rect x="136.5" y="76.8" class="st0" width="17.1" height="17.1"/>
<rect x="358.4" y="76.8" class="st0" width="17.1" height="17.1"/>
</svg>
